<?xml version="1.0" encoding="UTF-8" standalone="no"?>
<!DOCTYPE svg PUBLIC "-//W3C//DTD SVG 1.1//EN" "http://www.w3.org/Graphics/SVG/1.1/DTD/svg11.dtd">
<svg width="100%" height="100%" viewBox="0 0 4167 4167" version="1.1" xmlns="http://www.w3.org/2000/svg" xmlns:xlink="http://www.w3.org/1999/xlink" xml:space="preserve" xmlns:serif="http://www.serif.com/" style="fill-rule:evenodd;clip-rule:evenodd;stroke-linejoin:round;stroke-miterlimit:2;">
    <g transform="matrix(4.16667,0,0,4.16667,0,0)">
        <rect id="Logo" x="0" y="0" width="1000" height="1000" style="fill:white;"/>
        <clipPath id="_clip1">
            <rect id="Logo1" serif:id="Logo" x="0" y="0" width="1000" height="1000"/>
        </clipPath>
        <g clip-path="url(#_clip1)">
            <g>
                <g transform="matrix(0.807825,0,0,0.807825,285.714,428.571)">
                    <rect x="0" y="0" width="176.842" height="176.842"/>
                </g>
                <g transform="matrix(0.807825,0,0,0.807825,142.857,142.857)">
                    <rect x="0" y="0" width="176.842" height="176.842"/>
                </g>
                <path d="M1000,285.714L857.143,285.714L857.143,142.857L714.286,142.857L714.286,285.714L571.429,285.714L571.429,428.571L1000,428.571L1000,285.714Z"/>
                <path d="M285.714,142.857L571.429,142.857L571.429,0L285.714,0L285.714,142.857Z"/>
                <path d="M714.286,857.143L428.571,857.143L428.571,1000L714.286,1000"/>
                <path d="M285.714,714.286L0,714.286L0,857.143L142.857,857.143L142.857,1000L285.714,1000L285.714,714.286Z"/>
                <path d="M857.143,571.429L857.143,1000L1000,1000L1000,571.429L857.143,571.429Z"/>
            </g>
            <g transform="matrix(1,0,0,1,0,214.286)">
                <g transform="matrix(0.807825,0,0,0.807825,-6.47379,72.1635)">
                    <g transform="matrix(112.641,0,0,112.641,53.1651,134.178)">
                        <path d="M0.758,-0.672C0.757,-0.667 0.756,-0.651 0.755,-0.624C0.754,-0.596 0.751,-0.576 0.748,-0.561C0.744,-0.547 0.743,-0.535 0.746,-0.526C0.753,-0.504 0.752,-0.484 0.745,-0.467C0.738,-0.45 0.725,-0.431 0.707,-0.412C0.662,-0.383 0.62,-0.387 0.582,-0.424C0.575,-0.44 0.567,-0.465 0.56,-0.5C0.553,-0.534 0.547,-0.558 0.542,-0.572C0.535,-0.578 0.521,-0.591 0.5,-0.61C0.478,-0.628 0.461,-0.644 0.449,-0.655C0.401,-0.67 0.36,-0.67 0.326,-0.657C0.265,-0.611 0.22,-0.559 0.192,-0.501L0.193,-0.5C0.192,-0.469 0.183,-0.433 0.165,-0.39L0.18,-0.353C0.181,-0.347 0.183,-0.342 0.185,-0.335C0.186,-0.328 0.187,-0.322 0.187,-0.316C0.186,-0.309 0.185,-0.303 0.182,-0.297C0.184,-0.294 0.188,-0.289 0.193,-0.283C0.198,-0.277 0.201,-0.272 0.204,-0.268C0.207,-0.263 0.209,-0.259 0.21,-0.254C0.217,-0.23 0.229,-0.21 0.246,-0.195C0.263,-0.179 0.28,-0.168 0.296,-0.162C0.311,-0.156 0.333,-0.15 0.361,-0.143C0.366,-0.142 0.391,-0.139 0.438,-0.136C0.485,-0.133 0.528,-0.152 0.569,-0.194C0.587,-0.213 0.595,-0.237 0.593,-0.265C0.591,-0.292 0.601,-0.315 0.624,-0.334C0.631,-0.337 0.635,-0.339 0.636,-0.339C0.675,-0.342 0.702,-0.337 0.715,-0.325C0.728,-0.312 0.734,-0.287 0.733,-0.249C0.731,-0.185 0.709,-0.13 0.668,-0.084C0.627,-0.037 0.573,-0.008 0.507,0.004C0.412,0.021 0.326,0.014 0.25,-0.017C0.201,-0.038 0.161,-0.067 0.13,-0.103C0.106,-0.131 0.087,-0.151 0.073,-0.163C0.07,-0.173 0.067,-0.189 0.062,-0.212C0.056,-0.235 0.053,-0.252 0.05,-0.265C0.047,-0.277 0.042,-0.291 0.036,-0.308C0.029,-0.324 0.022,-0.338 0.015,-0.35C0.013,-0.363 0.015,-0.375 0.022,-0.386C0.023,-0.388 0.027,-0.396 0.032,-0.409C0.001,-0.452 0.001,-0.489 0.033,-0.519C0.036,-0.527 0.033,-0.539 0.027,-0.555C0.02,-0.57 0.021,-0.58 0.03,-0.585C0.032,-0.589 0.037,-0.589 0.044,-0.586C0.051,-0.582 0.056,-0.58 0.057,-0.58C0.061,-0.594 0.067,-0.612 0.075,-0.635C0.083,-0.658 0.088,-0.672 0.089,-0.677C0.095,-0.684 0.103,-0.692 0.113,-0.702C0.122,-0.711 0.13,-0.72 0.136,-0.727C0.142,-0.733 0.147,-0.741 0.152,-0.748C0.156,-0.755 0.166,-0.76 0.181,-0.764C0.196,-0.767 0.204,-0.774 0.207,-0.783C0.259,-0.827 0.32,-0.846 0.39,-0.841C0.393,-0.841 0.399,-0.841 0.41,-0.84C0.421,-0.838 0.428,-0.838 0.432,-0.838C0.435,-0.837 0.442,-0.837 0.452,-0.836C0.461,-0.834 0.468,-0.833 0.473,-0.833C0.478,-0.832 0.484,-0.83 0.493,-0.829C0.501,-0.828 0.508,-0.826 0.514,-0.824C0.519,-0.822 0.526,-0.82 0.533,-0.817C0.54,-0.814 0.546,-0.811 0.553,-0.808C0.559,-0.805 0.565,-0.801 0.571,-0.797C0.578,-0.796 0.584,-0.799 0.591,-0.806C0.598,-0.813 0.602,-0.818 0.605,-0.819C0.632,-0.823 0.651,-0.824 0.66,-0.823C0.669,-0.821 0.69,-0.814 0.723,-0.802C0.752,-0.763 0.764,-0.72 0.758,-0.672Z" style="fill-rule:nonzero;"/>
                    </g>
                </g>
                <g transform="matrix(0.807825,0,0,0.807825,90.9916,72.1635)">
                    <g transform="matrix(112.641,0,0,112.641,53.1651,134.178)">
                        <path d="M0.021,-0.84C0.029,-0.845 0.041,-0.852 0.056,-0.861C0.071,-0.87 0.082,-0.876 0.088,-0.88C0.119,-0.877 0.141,-0.87 0.155,-0.859C0.162,-0.852 0.167,-0.843 0.172,-0.834C0.176,-0.824 0.18,-0.813 0.183,-0.801C0.186,-0.789 0.189,-0.78 0.192,-0.774C0.191,-0.763 0.19,-0.746 0.187,-0.723C0.184,-0.7 0.183,-0.683 0.183,-0.673C0.183,-0.662 0.185,-0.645 0.189,-0.621C0.194,-0.6 0.189,-0.576 0.173,-0.549C0.168,-0.539 0.155,-0.519 0.136,-0.489C0.104,-0.482 0.082,-0.481 0.069,-0.488C0.056,-0.494 0.045,-0.512 0.034,-0.543C0.033,-0.545 0.028,-0.555 0.019,-0.572C0.01,-0.589 0.005,-0.606 0.004,-0.621C0.011,-0.642 0.013,-0.676 0.012,-0.725C0.011,-0.774 0.014,-0.812 0.021,-0.84Z" style="fill-rule:nonzero;"/>
                    </g>
                </g>
                <g transform="matrix(0.807825,0,0,0.807825,141.082,72.3234)">
                    <g transform="matrix(112.641,0,0,112.641,53.1651,134.178)">
                        <path d="M0.563,-0.302C0.591,-0.297 0.613,-0.286 0.629,-0.27C0.644,-0.254 0.65,-0.231 0.646,-0.202C0.638,-0.142 0.612,-0.094 0.567,-0.057C0.508,-0.012 0.437,0.011 0.352,0.012C0.267,0.012 0.195,-0.011 0.136,-0.058C0.124,-0.069 0.106,-0.084 0.081,-0.105C0.078,-0.112 0.074,-0.124 0.069,-0.139C0.064,-0.154 0.06,-0.167 0.057,-0.177C0.053,-0.186 0.047,-0.197 0.04,-0.209C0.033,-0.221 0.024,-0.231 0.015,-0.24C0.019,-0.248 0.024,-0.26 0.031,-0.277L0.031,-0.283C0.009,-0.305 0.002,-0.327 0.011,-0.349L0.011,-0.348C0.011,-0.349 0.012,-0.356 0.015,-0.367C0.018,-0.378 0.019,-0.384 0.019,-0.385C0.018,-0.387 0.017,-0.389 0.016,-0.392C0.014,-0.395 0.012,-0.397 0.011,-0.4C0.009,-0.402 0.008,-0.404 0.007,-0.406C0.008,-0.417 0.014,-0.421 0.027,-0.42C0.035,-0.446 0.044,-0.468 0.055,-0.486C0.055,-0.488 0.055,-0.491 0.056,-0.496C0.057,-0.5 0.057,-0.503 0.057,-0.506C0.066,-0.516 0.078,-0.53 0.095,-0.548C0.111,-0.566 0.122,-0.579 0.129,-0.586L0.13,-0.588C0.152,-0.606 0.177,-0.62 0.204,-0.631C0.231,-0.642 0.265,-0.652 0.304,-0.662C0.315,-0.665 0.327,-0.664 0.339,-0.66L0.34,-0.661C0.346,-0.662 0.356,-0.663 0.371,-0.666C0.385,-0.668 0.396,-0.67 0.404,-0.671C0.418,-0.668 0.438,-0.662 0.465,-0.654C0.492,-0.646 0.507,-0.641 0.511,-0.64C0.522,-0.637 0.532,-0.633 0.541,-0.629C0.55,-0.625 0.558,-0.62 0.567,-0.613C0.576,-0.606 0.583,-0.6 0.588,-0.595C0.593,-0.59 0.601,-0.581 0.612,-0.57C0.622,-0.56 0.629,-0.549 0.634,-0.537C0.638,-0.525 0.641,-0.509 0.644,-0.49C0.646,-0.471 0.648,-0.458 0.65,-0.451L0.65,-0.45C0.657,-0.431 0.659,-0.412 0.658,-0.391C0.656,-0.37 0.648,-0.352 0.633,-0.336C0.629,-0.332 0.624,-0.33 0.618,-0.33C0.611,-0.33 0.6,-0.33 0.585,-0.329C0.569,-0.328 0.555,-0.328 0.544,-0.327C0.532,-0.326 0.524,-0.326 0.521,-0.326C0.51,-0.326 0.493,-0.326 0.47,-0.326C0.446,-0.325 0.427,-0.325 0.414,-0.325C0.4,-0.325 0.383,-0.325 0.364,-0.324C0.345,-0.323 0.327,-0.321 0.31,-0.319C0.285,-0.316 0.259,-0.316 0.232,-0.318C0.233,-0.313 0.235,-0.308 0.237,-0.304C0.24,-0.297 0.242,-0.29 0.245,-0.283C0.247,-0.276 0.249,-0.268 0.251,-0.261C0.253,-0.254 0.255,-0.247 0.257,-0.241C0.258,-0.234 0.26,-0.227 0.262,-0.22C0.264,-0.212 0.266,-0.205 0.267,-0.2C0.272,-0.195 0.279,-0.189 0.286,-0.182C0.293,-0.174 0.3,-0.167 0.307,-0.16C0.313,-0.153 0.319,-0.148 0.325,-0.144C0.362,-0.139 0.401,-0.143 0.441,-0.154C0.47,-0.173 0.489,-0.199 0.498,-0.233C0.503,-0.253 0.508,-0.267 0.513,-0.275C0.526,-0.297 0.542,-0.306 0.563,-0.302ZM0.241,-0.441C0.26,-0.44 0.28,-0.441 0.303,-0.442C0.325,-0.443 0.343,-0.444 0.357,-0.446C0.371,-0.447 0.392,-0.449 0.421,-0.452C0.449,-0.455 0.468,-0.457 0.479,-0.458C0.477,-0.465 0.475,-0.469 0.474,-0.471C0.473,-0.472 0.472,-0.473 0.469,-0.476C0.468,-0.477 0.466,-0.478 0.465,-0.479C0.462,-0.48 0.449,-0.487 0.428,-0.498C0.402,-0.505 0.373,-0.505 0.34,-0.5C0.306,-0.489 0.274,-0.475 0.244,-0.458C0.243,-0.455 0.242,-0.449 0.241,-0.441Z" style="fill-rule:nonzero;"/>
                    </g>
                </g>
                <g transform="matrix(0.807825,0,0,0.807825,287.184,72.5398)">
                    <g transform="matrix(112.641,0,0,112.641,53.1651,134.178)">
                        <path d="M0.383,-0.124L0.387,-0.124L0.386,-0.128L0.383,-0.124ZM0.551,-0.623C0.568,-0.598 0.578,-0.567 0.58,-0.531C0.582,-0.495 0.58,-0.461 0.573,-0.43C0.552,-0.395 0.515,-0.379 0.464,-0.38C0.423,-0.394 0.399,-0.419 0.39,-0.455C0.346,-0.471 0.316,-0.478 0.299,-0.476C0.282,-0.474 0.258,-0.461 0.225,-0.438C0.219,-0.425 0.224,-0.411 0.24,-0.398C0.253,-0.398 0.268,-0.397 0.284,-0.395C0.299,-0.392 0.312,-0.39 0.323,-0.387C0.333,-0.384 0.348,-0.381 0.368,-0.376C0.387,-0.371 0.401,-0.367 0.409,-0.365C0.464,-0.351 0.507,-0.318 0.539,-0.265C0.571,-0.212 0.572,-0.155 0.541,-0.094C0.511,-0.034 0.457,-0.001 0.38,0.006C0.301,0.013 0.24,0.009 0.197,-0.006C0.193,-0.007 0.187,-0.009 0.178,-0.01C0.169,-0.011 0.163,-0.012 0.16,-0.013C0.124,0.006 0.091,0.012 0.062,0.003C0.039,-0.008 0.023,-0.025 0.016,-0.048C0.015,-0.059 0.018,-0.073 0.026,-0.089C0.033,-0.105 0.037,-0.116 0.038,-0.123C0.037,-0.134 0.033,-0.147 0.026,-0.163C0.018,-0.178 0.014,-0.188 0.013,-0.191C0.013,-0.208 0.018,-0.22 0.027,-0.227C0.033,-0.232 0.041,-0.232 0.051,-0.227C0.06,-0.222 0.068,-0.22 0.073,-0.223C0.08,-0.227 0.092,-0.233 0.11,-0.24C0.145,-0.231 0.163,-0.212 0.166,-0.184C0.17,-0.183 0.176,-0.181 0.184,-0.178C0.191,-0.175 0.197,-0.173 0.201,-0.171C0.201,-0.168 0.199,-0.159 0.196,-0.142C0.203,-0.143 0.213,-0.142 0.226,-0.137C0.239,-0.132 0.249,-0.131 0.256,-0.133C0.274,-0.137 0.29,-0.138 0.305,-0.135C0.319,-0.132 0.335,-0.131 0.353,-0.132C0.371,-0.133 0.387,-0.139 0.4,-0.149C0.416,-0.158 0.422,-0.172 0.418,-0.191C0.413,-0.2 0.401,-0.208 0.384,-0.215C0.366,-0.221 0.355,-0.225 0.351,-0.228C0.305,-0.222 0.264,-0.227 0.228,-0.242C0.223,-0.245 0.217,-0.246 0.21,-0.247C0.203,-0.248 0.195,-0.248 0.188,-0.248C0.181,-0.248 0.175,-0.248 0.172,-0.249C0.114,-0.269 0.072,-0.297 0.046,-0.332C0.02,-0.367 0.013,-0.415 0.024,-0.475C0.055,-0.525 0.086,-0.565 0.117,-0.594C0.144,-0.62 0.177,-0.636 0.216,-0.642C0.301,-0.655 0.366,-0.655 0.412,-0.643C0.421,-0.64 0.432,-0.642 0.448,-0.647C0.463,-0.652 0.474,-0.653 0.483,-0.652C0.486,-0.651 0.495,-0.648 0.512,-0.643C0.529,-0.638 0.542,-0.631 0.551,-0.623Z" style="fill-rule:nonzero;"/>
                    </g>
                </g>
                <g transform="matrix(0.807825,0,0,0.807825,433.348,72.3234)">
                    <g transform="matrix(112.641,0,0,112.641,53.1651,134.178)">
                        <path d="M0.52,-0.285L0.521,-0.211C0.521,-0.202 0.52,-0.191 0.519,-0.177C0.517,-0.163 0.514,-0.15 0.511,-0.139C0.484,-0.044 0.423,0.004 0.327,0.005C0.292,0.005 0.258,-0.002 0.223,-0.017C0.172,-0.038 0.142,-0.072 0.134,-0.118C0.133,-0.126 0.125,-0.145 0.11,-0.176C0.114,-0.195 0.117,-0.209 0.118,-0.218C0.119,-0.227 0.119,-0.238 0.119,-0.251C0.118,-0.264 0.114,-0.276 0.108,-0.287C0.103,-0.296 0.105,-0.312 0.116,-0.334C0.115,-0.339 0.111,-0.347 0.105,-0.358C0.098,-0.369 0.095,-0.378 0.094,-0.385C0.093,-0.408 0.084,-0.425 0.069,-0.438C0.029,-0.451 0.006,-0.482 0,-0.53C0.003,-0.554 0.013,-0.572 0.029,-0.583C0.045,-0.594 0.067,-0.604 0.094,-0.612C0.103,-0.62 0.108,-0.629 0.109,-0.638C0.11,-0.647 0.108,-0.658 0.104,-0.67C0.1,-0.681 0.098,-0.69 0.098,-0.695C0.109,-0.731 0.127,-0.761 0.154,-0.785C0.163,-0.788 0.177,-0.788 0.194,-0.786C0.211,-0.783 0.223,-0.784 0.23,-0.787C0.274,-0.767 0.297,-0.733 0.298,-0.685C0.298,-0.676 0.299,-0.656 0.302,-0.625C0.309,-0.624 0.32,-0.624 0.337,-0.624C0.354,-0.623 0.368,-0.623 0.38,-0.622C0.391,-0.621 0.403,-0.62 0.414,-0.617C0.441,-0.611 0.46,-0.603 0.47,-0.593C0.483,-0.58 0.492,-0.56 0.495,-0.535C0.503,-0.482 0.481,-0.45 0.428,-0.437C0.415,-0.434 0.387,-0.432 0.344,-0.432C0.34,-0.432 0.334,-0.431 0.325,-0.43C0.316,-0.429 0.311,-0.428 0.309,-0.428C0.293,-0.408 0.284,-0.381 0.283,-0.348C0.282,-0.339 0.28,-0.319 0.277,-0.286C0.274,-0.253 0.273,-0.227 0.274,-0.206C0.275,-0.185 0.28,-0.165 0.289,-0.146C0.306,-0.135 0.325,-0.136 0.346,-0.147C0.367,-0.168 0.377,-0.198 0.376,-0.238C0.375,-0.279 0.393,-0.306 0.431,-0.32C0.45,-0.327 0.469,-0.328 0.487,-0.322C0.501,-0.317 0.512,-0.305 0.52,-0.285Z" style="fill-rule:nonzero;"/>
                    </g>
                </g>
            </g>
            <g transform="matrix(0.807825,0,0,0.807825,5.62278e-14,571.429)">
                <g transform="matrix(1,0,0,1,-8.01386,0.909768)">
                    <g transform="matrix(112.641,0,0,112.641,53.1651,134.178)">
                        <path d="M0.758,-0.672C0.757,-0.667 0.756,-0.651 0.755,-0.624C0.754,-0.596 0.751,-0.576 0.748,-0.561C0.744,-0.547 0.743,-0.535 0.746,-0.526C0.753,-0.504 0.752,-0.484 0.745,-0.467C0.738,-0.45 0.725,-0.431 0.707,-0.412C0.662,-0.383 0.62,-0.387 0.582,-0.424C0.575,-0.44 0.567,-0.465 0.56,-0.5C0.553,-0.534 0.547,-0.558 0.542,-0.572C0.535,-0.578 0.521,-0.591 0.5,-0.61C0.478,-0.628 0.461,-0.644 0.449,-0.655C0.401,-0.67 0.36,-0.67 0.326,-0.657C0.265,-0.611 0.22,-0.559 0.192,-0.501L0.193,-0.5C0.192,-0.469 0.183,-0.433 0.165,-0.39L0.18,-0.353C0.181,-0.347 0.183,-0.342 0.185,-0.335C0.186,-0.328 0.187,-0.322 0.187,-0.316C0.186,-0.309 0.185,-0.303 0.182,-0.297C0.184,-0.294 0.188,-0.289 0.193,-0.283C0.198,-0.277 0.201,-0.272 0.204,-0.268C0.207,-0.263 0.209,-0.259 0.21,-0.254C0.217,-0.23 0.229,-0.21 0.246,-0.195C0.263,-0.179 0.28,-0.168 0.296,-0.162C0.311,-0.156 0.333,-0.15 0.361,-0.143C0.366,-0.142 0.391,-0.139 0.438,-0.136C0.485,-0.133 0.528,-0.152 0.569,-0.194C0.587,-0.213 0.595,-0.237 0.593,-0.265C0.591,-0.292 0.601,-0.315 0.624,-0.334C0.631,-0.337 0.635,-0.339 0.636,-0.339C0.675,-0.342 0.702,-0.337 0.715,-0.325C0.728,-0.312 0.734,-0.287 0.733,-0.249C0.731,-0.185 0.709,-0.13 0.668,-0.084C0.627,-0.037 0.573,-0.008 0.507,0.004C0.412,0.021 0.326,0.014 0.25,-0.017C0.201,-0.038 0.161,-0.067 0.13,-0.103C0.106,-0.131 0.087,-0.151 0.073,-0.163C0.07,-0.173 0.067,-0.189 0.062,-0.212C0.056,-0.235 0.053,-0.252 0.05,-0.265C0.047,-0.277 0.042,-0.291 0.036,-0.308C0.029,-0.324 0.022,-0.338 0.015,-0.35C0.013,-0.363 0.015,-0.375 0.022,-0.386C0.023,-0.388 0.027,-0.396 0.032,-0.409C0.001,-0.452 0.001,-0.489 0.033,-0.519C0.036,-0.527 0.033,-0.539 0.027,-0.555C0.02,-0.57 0.021,-0.58 0.03,-0.585C0.032,-0.589 0.037,-0.589 0.044,-0.586C0.051,-0.582 0.056,-0.58 0.057,-0.58C0.061,-0.594 0.067,-0.612 0.075,-0.635C0.083,-0.658 0.088,-0.672 0.089,-0.677C0.095,-0.684 0.103,-0.692 0.113,-0.702C0.122,-0.711 0.13,-0.72 0.136,-0.727C0.142,-0.733 0.147,-0.741 0.152,-0.748C0.156,-0.755 0.166,-0.76 0.181,-0.764C0.196,-0.767 0.204,-0.774 0.207,-0.783C0.259,-0.827 0.32,-0.846 0.39,-0.841C0.393,-0.841 0.399,-0.841 0.41,-0.84C0.421,-0.838 0.428,-0.838 0.432,-0.838C0.435,-0.837 0.442,-0.837 0.452,-0.836C0.461,-0.834 0.468,-0.833 0.473,-0.833C0.478,-0.832 0.484,-0.83 0.493,-0.829C0.501,-0.828 0.508,-0.826 0.514,-0.824C0.519,-0.822 0.526,-0.82 0.533,-0.817C0.54,-0.814 0.546,-0.811 0.553,-0.808C0.559,-0.805 0.565,-0.801 0.571,-0.797C0.578,-0.796 0.584,-0.799 0.591,-0.806C0.598,-0.813 0.602,-0.818 0.605,-0.819C0.632,-0.823 0.651,-0.824 0.66,-0.823C0.669,-0.821 0.69,-0.814 0.723,-0.802C0.752,-0.763 0.764,-0.72 0.758,-0.672Z" style="fill-rule:nonzero;"/>
                    </g>
                </g>
                <g transform="matrix(1,0,0,1,176.222,-1.37005)">
                    <g transform="matrix(112.641,0,0,112.641,53.1651,134.178)">
                        <path d="M0.496,-0.181C0.519,-0.228 0.525,-0.286 0.512,-0.353C0.503,-0.395 0.479,-0.428 0.439,-0.452C0.39,-0.448 0.355,-0.448 0.334,-0.451C0.315,-0.454 0.297,-0.453 0.278,-0.448C0.233,-0.435 0.208,-0.413 0.203,-0.382C0.196,-0.339 0.196,-0.306 0.204,-0.285C0.205,-0.282 0.215,-0.247 0.232,-0.182C0.237,-0.177 0.245,-0.168 0.256,-0.156C0.267,-0.143 0.275,-0.134 0.282,-0.129C0.288,-0.123 0.297,-0.118 0.309,-0.113C0.32,-0.108 0.333,-0.107 0.347,-0.109C0.371,-0.117 0.421,-0.141 0.496,-0.181ZM0.62,-0.412C0.64,-0.337 0.642,-0.272 0.627,-0.216C0.625,-0.209 0.623,-0.198 0.622,-0.184C0.621,-0.17 0.62,-0.162 0.619,-0.159C0.612,-0.15 0.596,-0.126 0.574,-0.089C0.551,-0.052 0.529,-0.024 0.509,-0.007C0.506,-0.005 0.498,-0.003 0.485,-0.001C0.472,0.001 0.462,0.004 0.455,0.009C0.426,0.028 0.385,0.036 0.333,0.033C0.253,0.028 0.175,-0.005 0.099,-0.066C0.09,-0.073 0.081,-0.084 0.073,-0.098C0.026,-0.181 0.002,-0.258 0,-0.331C0,-0.338 0.003,-0.356 0.01,-0.386C0.012,-0.395 0.017,-0.409 0.024,-0.428C0.031,-0.447 0.036,-0.462 0.038,-0.473C0.039,-0.484 0.048,-0.498 0.064,-0.515C0.119,-0.577 0.202,-0.617 0.313,-0.635C0.324,-0.637 0.335,-0.637 0.347,-0.636C0.358,-0.634 0.372,-0.631 0.389,-0.627C0.406,-0.622 0.417,-0.619 0.424,-0.618C0.431,-0.617 0.447,-0.612 0.471,-0.603C0.496,-0.574 0.516,-0.555 0.532,-0.544C0.575,-0.515 0.605,-0.471 0.62,-0.412Z" style="fill-rule:nonzero;"/>
                    </g>
                </g>
                <g transform="matrix(1,0,0,1,342.42,-1.08845)">
                    <g transform="matrix(112.641,0,0,112.641,53.1651,134.178)">
                        <path d="M0.584,-0.297C0.587,-0.322 0.588,-0.35 0.586,-0.38C0.584,-0.41 0.577,-0.437 0.564,-0.461C0.546,-0.496 0.521,-0.515 0.489,-0.52C0.451,-0.5 0.415,-0.496 0.382,-0.509C0.376,-0.477 0.357,-0.447 0.324,-0.418C0.325,-0.407 0.323,-0.398 0.32,-0.389C0.316,-0.38 0.311,-0.374 0.305,-0.372C0.306,-0.364 0.308,-0.352 0.309,-0.337C0.31,-0.321 0.311,-0.307 0.314,-0.296C0.317,-0.284 0.321,-0.273 0.328,-0.264C0.315,-0.216 0.318,-0.175 0.338,-0.142C0.341,-0.141 0.35,-0.14 0.364,-0.139C0.378,-0.138 0.389,-0.135 0.397,-0.132C0.405,-0.129 0.413,-0.121 0.422,-0.108C0.431,-0.095 0.438,-0.087 0.445,-0.083C0.452,-0.087 0.46,-0.092 0.469,-0.099C0.478,-0.106 0.483,-0.11 0.485,-0.111C0.491,-0.113 0.505,-0.114 0.527,-0.115C0.549,-0.115 0.565,-0.12 0.575,-0.131C0.578,-0.15 0.58,-0.18 0.581,-0.22C0.582,-0.259 0.583,-0.285 0.584,-0.297ZM0.82,-0.077C0.833,-0.046 0.824,-0.023 0.793,-0.006C0.77,0.007 0.745,0.009 0.717,0.001C0.675,-0.012 0.628,-0.011 0.577,0.002C0.532,0.014 0.487,0.001 0.444,-0.038C0.439,-0.032 0.434,-0.025 0.429,-0.016C0.423,-0.007 0.419,-0.001 0.417,0.002C0.402,0 0.382,0.004 0.359,0.014C0.336,0.024 0.319,0.03 0.308,0.031C0.302,0.029 0.295,0.027 0.288,0.025C0.28,0.022 0.271,0.019 0.261,0.016C0.25,0.012 0.242,0.009 0.236,0.007C0.201,0.018 0.163,0.025 0.121,0.026C0.056,0.027 0.015,-0.003 0,-0.064C0.007,-0.077 0.015,-0.096 0.025,-0.121C0.036,-0.132 0.055,-0.14 0.081,-0.146C0.107,-0.151 0.125,-0.157 0.135,-0.163C0.141,-0.178 0.14,-0.201 0.133,-0.232C0.126,-0.262 0.125,-0.285 0.13,-0.3C0.137,-0.309 0.138,-0.331 0.135,-0.366C0.131,-0.401 0.129,-0.424 0.13,-0.435C0.079,-0.446 0.041,-0.469 0.015,-0.504C0.015,-0.505 0.014,-0.507 0.013,-0.51C0.011,-0.513 0.01,-0.516 0.011,-0.517C0.012,-0.522 0.012,-0.53 0.013,-0.54C0.014,-0.549 0.014,-0.557 0.015,-0.563C0.016,-0.569 0.018,-0.576 0.022,-0.584C0.025,-0.591 0.03,-0.597 0.037,-0.602C0.076,-0.631 0.118,-0.643 0.163,-0.637C0.17,-0.636 0.182,-0.635 0.197,-0.634C0.212,-0.632 0.224,-0.632 0.233,-0.631C0.242,-0.63 0.253,-0.627 0.265,-0.624C0.277,-0.62 0.287,-0.615 0.296,-0.608C0.332,-0.617 0.364,-0.623 0.392,-0.627C0.419,-0.631 0.45,-0.632 0.484,-0.632C0.518,-0.631 0.551,-0.626 0.582,-0.617C0.587,-0.612 0.598,-0.605 0.615,-0.596C0.632,-0.586 0.644,-0.578 0.653,-0.571C0.716,-0.524 0.746,-0.455 0.741,-0.366C0.74,-0.354 0.74,-0.334 0.74,-0.307C0.74,-0.28 0.739,-0.256 0.738,-0.235C0.737,-0.214 0.734,-0.195 0.729,-0.176C0.726,-0.163 0.728,-0.15 0.737,-0.139C0.741,-0.134 0.75,-0.131 0.764,-0.128C0.778,-0.125 0.789,-0.12 0.797,-0.113C0.798,-0.112 0.801,-0.109 0.804,-0.105C0.807,-0.1 0.81,-0.096 0.813,-0.091C0.816,-0.086 0.818,-0.082 0.82,-0.077Z" style="fill-rule:nonzero;"/>
                    </g>
                </g>
                <g transform="matrix(1,0,0,1,507.855,-1.08845)">
                    <g transform="matrix(112.641,0,0,112.641,53.1651,134.178)">
                        <path d="M1.019,-0.591C1.032,-0.57 1.032,-0.551 1.019,-0.532C1.01,-0.521 0.995,-0.515 0.975,-0.514C0.955,-0.513 0.943,-0.511 0.94,-0.51C0.926,-0.503 0.916,-0.487 0.911,-0.462C0.907,-0.445 0.901,-0.424 0.894,-0.401C0.887,-0.377 0.88,-0.357 0.875,-0.341C0.87,-0.325 0.866,-0.316 0.865,-0.313C0.857,-0.299 0.855,-0.284 0.86,-0.267C0.864,-0.25 0.861,-0.235 0.851,-0.222C0.848,-0.219 0.839,-0.19 0.824,-0.136C0.809,-0.082 0.801,-0.054 0.8,-0.053C0.798,-0.048 0.796,-0.044 0.795,-0.042C0.794,-0.039 0.793,-0.038 0.792,-0.038C0.791,-0.037 0.791,-0.037 0.79,-0.037C0.789,-0.037 0.787,-0.036 0.785,-0.034C0.783,-0.032 0.781,-0.028 0.778,-0.023C0.771,-0.011 0.759,-0.005 0.74,-0.004C0.721,-0.003 0.707,-0.007 0.696,-0.017C0.689,-0.024 0.681,-0.028 0.671,-0.031C0.66,-0.033 0.651,-0.039 0.644,-0.048C0.625,-0.073 0.611,-0.1 0.604,-0.129C0.597,-0.156 0.587,-0.194 0.572,-0.244C0.557,-0.293 0.549,-0.322 0.546,-0.331C0.542,-0.342 0.534,-0.349 0.521,-0.35C0.516,-0.337 0.514,-0.319 0.514,-0.296C0.514,-0.273 0.513,-0.255 0.511,-0.242L0.49,-0.218C0.489,-0.211 0.488,-0.206 0.489,-0.203C0.49,-0.2 0.492,-0.195 0.495,-0.19C0.498,-0.184 0.499,-0.18 0.5,-0.177C0.499,-0.175 0.498,-0.171 0.497,-0.164C0.496,-0.157 0.495,-0.152 0.494,-0.149C0.493,-0.146 0.492,-0.142 0.491,-0.137C0.489,-0.131 0.487,-0.127 0.485,-0.124C0.483,-0.121 0.481,-0.117 0.478,-0.113C0.475,-0.108 0.471,-0.104 0.467,-0.101C0.461,-0.096 0.455,-0.085 0.449,-0.07C0.442,-0.055 0.437,-0.046 0.433,-0.044C0.426,-0.043 0.419,-0.035 0.41,-0.022C0.401,-0.009 0.393,-0.001 0.388,0.002C0.383,0.003 0.374,0.003 0.363,0.002C0.351,0.001 0.342,0.001 0.335,0.003C0.302,0.012 0.278,-0.001 0.262,-0.036C0.259,-0.044 0.243,-0.073 0.215,-0.123C0.216,-0.126 0.218,-0.13 0.219,-0.135C0.22,-0.14 0.221,-0.143 0.222,-0.146C0.213,-0.158 0.205,-0.173 0.198,-0.19C0.191,-0.206 0.186,-0.22 0.183,-0.23C0.18,-0.239 0.176,-0.256 0.171,-0.279C0.16,-0.332 0.152,-0.364 0.149,-0.375C0.148,-0.376 0.147,-0.38 0.146,-0.386C0.145,-0.392 0.144,-0.396 0.143,-0.398C0.142,-0.4 0.142,-0.403 0.141,-0.408C0.14,-0.413 0.14,-0.416 0.141,-0.419C0.141,-0.422 0.142,-0.425 0.143,-0.429C0.144,-0.432 0.146,-0.436 0.148,-0.439C0.136,-0.466 0.118,-0.482 0.093,-0.486C0.041,-0.494 0.01,-0.527 0,-0.584C0.004,-0.611 0.017,-0.627 0.04,-0.632C0.047,-0.633 0.058,-0.636 0.073,-0.642C0.088,-0.647 0.102,-0.65 0.114,-0.652C0.126,-0.654 0.138,-0.654 0.15,-0.653C0.188,-0.648 0.225,-0.65 0.262,-0.66C0.275,-0.663 0.292,-0.663 0.315,-0.658C0.337,-0.653 0.352,-0.651 0.361,-0.652C0.371,-0.649 0.38,-0.641 0.389,-0.628C0.397,-0.615 0.403,-0.606 0.408,-0.603C0.401,-0.595 0.392,-0.585 0.382,-0.572C0.372,-0.559 0.364,-0.549 0.358,-0.542C0.352,-0.535 0.349,-0.531 0.349,-0.532C0.343,-0.531 0.339,-0.525 0.339,-0.516C0.338,-0.507 0.338,-0.497 0.339,-0.488C0.34,-0.478 0.339,-0.47 0.335,-0.463C0.334,-0.448 0.337,-0.424 0.343,-0.391C0.348,-0.357 0.355,-0.337 0.363,-0.331C0.373,-0.338 0.38,-0.362 0.384,-0.405C0.387,-0.448 0.39,-0.47 0.391,-0.473C0.418,-0.535 0.435,-0.58 0.442,-0.609C0.467,-0.62 0.489,-0.633 0.509,-0.647C0.536,-0.655 0.563,-0.647 0.591,-0.623C0.598,-0.617 0.611,-0.587 0.632,-0.533C0.653,-0.478 0.663,-0.451 0.664,-0.45C0.677,-0.429 0.685,-0.403 0.688,-0.372C0.689,-0.355 0.699,-0.346 0.717,-0.343C0.731,-0.376 0.739,-0.434 0.741,-0.515C0.707,-0.535 0.68,-0.555 0.659,-0.575C0.66,-0.577 0.661,-0.581 0.661,-0.588C0.661,-0.594 0.661,-0.598 0.662,-0.6C0.669,-0.616 0.679,-0.628 0.692,-0.637C0.705,-0.645 0.72,-0.648 0.736,-0.645C0.755,-0.642 0.791,-0.64 0.844,-0.639C0.897,-0.638 0.938,-0.633 0.967,-0.624C0.992,-0.617 1.01,-0.606 1.019,-0.591Z" style="fill-rule:nonzero;"/>
                    </g>
                </g>
                <g transform="matrix(1,0,0,1,702.362,-1.08845)">
                    <g transform="matrix(112.641,0,0,112.641,53.1651,134.178)">
                        <path d="M0.378,-0.204C0.38,-0.207 0.387,-0.213 0.398,-0.222C0.409,-0.23 0.415,-0.239 0.415,-0.25C0.394,-0.251 0.373,-0.25 0.351,-0.245C0.329,-0.24 0.312,-0.236 0.3,-0.231C0.287,-0.226 0.268,-0.217 0.242,-0.204C0.216,-0.191 0.199,-0.183 0.191,-0.18C0.19,-0.179 0.189,-0.178 0.188,-0.176C0.187,-0.174 0.187,-0.171 0.186,-0.168C0.185,-0.165 0.183,-0.162 0.182,-0.16C0.189,-0.153 0.198,-0.148 0.207,-0.145C0.216,-0.141 0.227,-0.138 0.24,-0.136C0.253,-0.133 0.261,-0.131 0.266,-0.13C0.269,-0.131 0.28,-0.134 0.299,-0.139C0.318,-0.143 0.331,-0.149 0.34,-0.155C0.341,-0.157 0.347,-0.164 0.357,-0.176C0.367,-0.187 0.374,-0.197 0.378,-0.204ZM0.692,-0.285C0.705,-0.26 0.712,-0.233 0.714,-0.204C0.716,-0.175 0.715,-0.149 0.71,-0.125C0.705,-0.101 0.696,-0.074 0.685,-0.043C0.675,-0.016 0.651,0 0.612,0.006C0.555,0.015 0.508,0.003 0.472,-0.028C0.469,-0.031 0.464,-0.036 0.457,-0.041C0.45,-0.046 0.446,-0.049 0.444,-0.05C0.429,-0.047 0.409,-0.037 0.382,-0.021C0.355,-0.004 0.333,0.005 0.316,0.007C0.306,0.008 0.261,0.012 0.18,0.019C0.167,0.013 0.147,0.001 0.119,-0.017C0.09,-0.034 0.068,-0.046 0.053,-0.051C0.047,-0.058 0.044,-0.066 0.045,-0.076C0.046,-0.086 0.045,-0.092 0.042,-0.094C0.04,-0.101 0.035,-0.106 0.028,-0.109C0.02,-0.112 0.015,-0.114 0.014,-0.116C0.012,-0.121 0.01,-0.127 0.007,-0.136C0.004,-0.145 0.001,-0.151 0,-0.155C0.001,-0.156 0.003,-0.161 0.008,-0.169C0.012,-0.176 0.015,-0.182 0.017,-0.186C0.012,-0.198 0.01,-0.213 0.01,-0.231C0.022,-0.236 0.044,-0.265 0.076,-0.319C0.089,-0.328 0.122,-0.342 0.177,-0.36C0.232,-0.378 0.26,-0.384 0.262,-0.378C0.278,-0.373 0.29,-0.37 0.297,-0.371C0.304,-0.372 0.315,-0.375 0.33,-0.38C0.345,-0.385 0.356,-0.387 0.363,-0.388C0.368,-0.381 0.373,-0.381 0.378,-0.388C0.389,-0.4 0.395,-0.415 0.395,-0.433C0.395,-0.434 0.393,-0.441 0.389,-0.453C0.362,-0.466 0.342,-0.474 0.331,-0.475C0.214,-0.449 0.151,-0.429 0.142,-0.414C0.141,-0.413 0.131,-0.413 0.113,-0.416C0.094,-0.418 0.075,-0.423 0.054,-0.432C0.033,-0.44 0.021,-0.451 0.017,-0.464C0.032,-0.543 0.084,-0.599 0.171,-0.632C0.196,-0.641 0.238,-0.645 0.297,-0.644C0.341,-0.643 0.374,-0.641 0.396,-0.64C0.431,-0.638 0.467,-0.621 0.502,-0.59C0.526,-0.569 0.544,-0.548 0.556,-0.529C0.568,-0.509 0.572,-0.485 0.567,-0.458C0.566,-0.455 0.57,-0.446 0.577,-0.432C0.582,-0.423 0.583,-0.407 0.58,-0.385C0.577,-0.366 0.577,-0.332 0.578,-0.281C0.578,-0.268 0.585,-0.258 0.598,-0.252C0.605,-0.255 0.61,-0.262 0.613,-0.273C0.616,-0.284 0.619,-0.291 0.623,-0.292C0.649,-0.304 0.672,-0.302 0.692,-0.285Z" style="fill-rule:nonzero;"/>
                    </g>
                </g>
                <g transform="matrix(1,0,0,1,871.699,-1.08845)">
                    <g transform="matrix(112.641,0,0,112.641,53.1651,134.178)">
                        <path d="M0.465,-0.197C0.48,-0.2 0.489,-0.208 0.491,-0.219C0.493,-0.23 0.503,-0.257 0.521,-0.298C0.539,-0.339 0.546,-0.374 0.542,-0.401C0.53,-0.405 0.519,-0.411 0.508,-0.419C0.497,-0.427 0.485,-0.437 0.472,-0.45C0.458,-0.463 0.447,-0.472 0.44,-0.478C0.437,-0.475 0.434,-0.469 0.429,-0.462C0.424,-0.455 0.42,-0.449 0.417,-0.445C0.413,-0.44 0.41,-0.436 0.405,-0.431C0.4,-0.426 0.394,-0.421 0.389,-0.418C0.391,-0.397 0.395,-0.376 0.401,-0.355C0.407,-0.334 0.415,-0.311 0.425,-0.286C0.435,-0.261 0.442,-0.242 0.445,-0.231C0.445,-0.23 0.446,-0.227 0.447,-0.22C0.448,-0.213 0.45,-0.207 0.453,-0.204C0.456,-0.201 0.46,-0.198 0.465,-0.197ZM0.844,-0.511C0.847,-0.502 0.846,-0.494 0.842,-0.487C0.838,-0.479 0.828,-0.467 0.812,-0.45C0.789,-0.449 0.765,-0.446 0.741,-0.443C0.736,-0.438 0.731,-0.433 0.727,-0.427C0.722,-0.42 0.719,-0.415 0.717,-0.411C0.715,-0.406 0.713,-0.4 0.71,-0.391C0.707,-0.382 0.705,-0.376 0.704,-0.373C0.631,-0.188 0.567,-0.046 0.511,0.053C0.486,0.096 0.459,0.134 0.428,0.166C0.425,0.169 0.407,0.189 0.376,0.228C0.357,0.235 0.337,0.241 0.316,0.246C0.295,0.251 0.27,0.257 0.241,0.264C0.211,0.27 0.191,0.274 0.181,0.277C0.174,0.274 0.164,0.267 0.153,0.256C0.142,0.245 0.131,0.239 0.122,0.238C0.118,0.239 0.109,0.242 0.096,0.247L0.05,0.206C0.049,0.204 0.046,0.187 0.039,0.156L0.006,0.132C0.001,0.119 0.001,0.107 0.006,0.098C0.008,0.095 0.013,0.095 0.02,0.098C0.027,0.1 0.032,0.101 0.033,0.101C0.038,0.097 0.039,0.09 0.037,0.081C0.034,0.072 0.036,0.063 0.041,0.054C0.046,0.052 0.054,0.042 0.065,0.023C0.076,0.004 0.088,-0.007 0.102,-0.011C0.137,-0.005 0.16,0.001 0.171,0.006C0.182,0.011 0.197,0.025 0.218,0.046C0.212,0.073 0.219,0.094 0.239,0.109C0.257,0.112 0.272,0.109 0.285,0.1C0.297,0.091 0.309,0.079 0.321,0.064C0.333,0.049 0.345,0.04 0.357,0.036C0.354,0.027 0.35,0.01 0.346,-0.015C0.341,-0.04 0.335,-0.06 0.329,-0.076C0.323,-0.091 0.314,-0.106 0.303,-0.119C0.296,-0.127 0.292,-0.135 0.291,-0.144C0.29,-0.164 0.28,-0.189 0.262,-0.219C0.243,-0.249 0.232,-0.268 0.229,-0.277C0.224,-0.29 0.204,-0.332 0.171,-0.405C0.17,-0.406 0.167,-0.41 0.16,-0.417C0.151,-0.419 0.138,-0.422 0.12,-0.427C0.101,-0.432 0.09,-0.434 0.086,-0.435C0.077,-0.44 0.061,-0.455 0.036,-0.482C0.03,-0.499 0.028,-0.517 0.03,-0.535C0.032,-0.553 0.041,-0.568 0.056,-0.581C0.11,-0.602 0.167,-0.608 0.227,-0.598C0.247,-0.594 0.268,-0.596 0.29,-0.604C0.328,-0.617 0.365,-0.612 0.4,-0.589C0.405,-0.586 0.411,-0.578 0.42,-0.565C0.428,-0.552 0.436,-0.544 0.445,-0.54C0.453,-0.541 0.457,-0.543 0.458,-0.544C0.488,-0.589 0.531,-0.604 0.588,-0.589C0.625,-0.58 0.658,-0.577 0.686,-0.58C0.697,-0.581 0.708,-0.581 0.72,-0.579C0.731,-0.577 0.744,-0.574 0.758,-0.571C0.772,-0.567 0.783,-0.564 0.79,-0.563C0.791,-0.563 0.793,-0.562 0.797,-0.56C0.822,-0.551 0.837,-0.534 0.844,-0.511Z" style="fill-rule:nonzero;"/>
                    </g>
                </g>
            </g>
            <g transform="matrix(0.807825,0,0,0.807825,5.62278e-14,428.571)">
                <g transform="matrix(1,0,0,1,9.41076,1.10765)">
                    <g transform="matrix(112.641,0,0,112.641,53.1651,134.178)">
                        <path d="M0.157,-0.33L0.156,-0.329L0.156,-0.346L0.157,-0.345C0.158,-0.354 0.159,-0.37 0.161,-0.393C0.163,-0.416 0.164,-0.431 0.164,-0.44C0.164,-0.449 0.163,-0.464 0.16,-0.486C0.159,-0.494 0.158,-0.516 0.158,-0.553C0.157,-0.59 0.151,-0.617 0.139,-0.635C0.13,-0.636 0.117,-0.637 0.099,-0.639C0.08,-0.64 0.066,-0.642 0.056,-0.643C0.029,-0.68 0.015,-0.711 0.014,-0.736C0.013,-0.761 0.024,-0.79 0.047,-0.823C0.09,-0.841 0.138,-0.846 0.191,-0.839C0.226,-0.834 0.252,-0.83 0.268,-0.829C0.309,-0.826 0.339,-0.806 0.357,-0.769L0.373,-0.735C0.345,-0.635 0.34,-0.51 0.358,-0.36C0.361,-0.34 0.36,-0.311 0.356,-0.274C0.352,-0.236 0.351,-0.208 0.352,-0.191C0.352,-0.188 0.352,-0.182 0.352,-0.172C0.351,-0.162 0.352,-0.154 0.353,-0.147C0.354,-0.139 0.357,-0.132 0.36,-0.125C0.365,-0.122 0.375,-0.118 0.392,-0.113C0.409,-0.108 0.422,-0.101 0.431,-0.092C0.44,-0.083 0.445,-0.068 0.445,-0.047C0.44,-0.008 0.397,0.005 0.314,-0.007C0.269,-0.014 0.225,-0.012 0.181,-0.001C0.144,0.008 0.116,0.008 0.097,-0.004C0.077,-0.015 0.061,-0.039 0.048,-0.076C0.053,-0.093 0.068,-0.106 0.094,-0.115C0.105,-0.119 0.114,-0.123 0.121,-0.126C0.128,-0.129 0.135,-0.134 0.142,-0.141C0.149,-0.148 0.153,-0.157 0.155,-0.168L0.147,-0.193C0.146,-0.196 0.146,-0.199 0.147,-0.204C0.148,-0.209 0.151,-0.213 0.155,-0.217C0.157,-0.22 0.157,-0.225 0.156,-0.23C0.165,-0.235 0.165,-0.241 0.156,-0.246L0.157,-0.33Z" style="fill-rule:nonzero;"/>
                    </g>
                </g>
                <g transform="matrix(1,0,0,1,171.836,1.10765)">
                    <g transform="matrix(112.641,0,0,112.641,53.1651,134.178)">
                        <path d="M0.378,-0.204C0.38,-0.207 0.387,-0.213 0.398,-0.222C0.409,-0.23 0.415,-0.239 0.415,-0.25C0.394,-0.251 0.373,-0.25 0.351,-0.245C0.329,-0.24 0.312,-0.236 0.3,-0.231C0.287,-0.226 0.268,-0.217 0.242,-0.204C0.216,-0.191 0.199,-0.183 0.191,-0.18C0.19,-0.179 0.189,-0.178 0.188,-0.176C0.187,-0.174 0.187,-0.171 0.186,-0.168C0.185,-0.165 0.183,-0.162 0.182,-0.16C0.189,-0.153 0.198,-0.148 0.207,-0.145C0.216,-0.141 0.227,-0.138 0.24,-0.136C0.253,-0.133 0.261,-0.131 0.266,-0.13C0.269,-0.131 0.28,-0.134 0.299,-0.139C0.318,-0.143 0.331,-0.149 0.34,-0.155C0.341,-0.157 0.347,-0.164 0.357,-0.176C0.367,-0.187 0.374,-0.197 0.378,-0.204ZM0.692,-0.285C0.705,-0.26 0.712,-0.233 0.714,-0.204C0.716,-0.175 0.715,-0.149 0.71,-0.125C0.705,-0.101 0.696,-0.074 0.685,-0.043C0.675,-0.016 0.651,0 0.612,0.006C0.555,0.015 0.508,0.003 0.472,-0.028C0.469,-0.031 0.464,-0.036 0.457,-0.041C0.45,-0.046 0.446,-0.049 0.444,-0.05C0.429,-0.047 0.409,-0.037 0.382,-0.021C0.355,-0.004 0.333,0.005 0.316,0.007C0.306,0.008 0.261,0.012 0.18,0.019C0.167,0.013 0.147,0.001 0.119,-0.017C0.09,-0.034 0.068,-0.046 0.053,-0.051C0.047,-0.058 0.044,-0.066 0.045,-0.076C0.046,-0.086 0.045,-0.092 0.042,-0.094C0.04,-0.101 0.035,-0.106 0.028,-0.109C0.02,-0.112 0.015,-0.114 0.014,-0.116C0.012,-0.121 0.01,-0.127 0.007,-0.136C0.004,-0.145 0.001,-0.151 0,-0.155C0.001,-0.156 0.003,-0.161 0.008,-0.169C0.012,-0.176 0.015,-0.182 0.017,-0.186C0.012,-0.198 0.01,-0.213 0.01,-0.231C0.022,-0.236 0.044,-0.265 0.076,-0.319C0.089,-0.328 0.122,-0.342 0.177,-0.36C0.232,-0.378 0.26,-0.384 0.262,-0.378C0.278,-0.373 0.29,-0.37 0.297,-0.371C0.304,-0.372 0.315,-0.375 0.33,-0.38C0.345,-0.385 0.356,-0.387 0.363,-0.388C0.368,-0.381 0.373,-0.381 0.378,-0.388C0.389,-0.4 0.395,-0.415 0.395,-0.433C0.395,-0.434 0.393,-0.441 0.389,-0.453C0.362,-0.466 0.342,-0.474 0.331,-0.475C0.214,-0.449 0.151,-0.429 0.142,-0.414C0.141,-0.413 0.131,-0.413 0.113,-0.416C0.094,-0.418 0.075,-0.423 0.054,-0.432C0.033,-0.44 0.021,-0.451 0.017,-0.464C0.032,-0.543 0.084,-0.599 0.171,-0.632C0.196,-0.641 0.238,-0.645 0.297,-0.644C0.341,-0.643 0.374,-0.641 0.396,-0.64C0.431,-0.638 0.467,-0.621 0.502,-0.59C0.526,-0.569 0.544,-0.548 0.556,-0.529C0.568,-0.509 0.572,-0.485 0.567,-0.458C0.566,-0.455 0.57,-0.446 0.577,-0.432C0.582,-0.423 0.583,-0.407 0.58,-0.385C0.577,-0.366 0.577,-0.332 0.578,-0.281C0.578,-0.268 0.585,-0.258 0.598,-0.252C0.605,-0.255 0.61,-0.262 0.613,-0.273C0.616,-0.284 0.619,-0.291 0.623,-0.292C0.649,-0.304 0.672,-0.302 0.692,-0.285Z" style="fill-rule:nonzero;"/>
                    </g>
                </g>
                <g transform="matrix(1,0,0,1,513.797,1.21671)">
                    <g transform="matrix(112.641,0,0,112.641,53.1651,134.178)">
                        <path d="M0.622,-0.57C0.622,-0.575 0.622,-0.581 0.623,-0.588C0.623,-0.595 0.623,-0.601 0.624,-0.606C0.624,-0.611 0.624,-0.616 0.623,-0.622C0.622,-0.627 0.62,-0.632 0.618,-0.637C0.582,-0.634 0.559,-0.634 0.548,-0.637C0.537,-0.64 0.518,-0.653 0.491,-0.676C0.489,-0.677 0.484,-0.678 0.477,-0.678C0.471,-0.675 0.464,-0.667 0.456,-0.656C0.448,-0.644 0.44,-0.637 0.433,-0.634C0.43,-0.633 0.421,-0.632 0.406,-0.631C0.391,-0.63 0.379,-0.625 0.372,-0.617C0.372,-0.594 0.38,-0.558 0.396,-0.51C0.399,-0.502 0.41,-0.473 0.431,-0.423C0.451,-0.372 0.463,-0.333 0.468,-0.304C0.471,-0.282 0.481,-0.27 0.5,-0.269C0.508,-0.276 0.515,-0.285 0.52,-0.295C0.525,-0.305 0.53,-0.317 0.535,-0.33C0.54,-0.343 0.545,-0.353 0.548,-0.36L0.547,-0.359C0.558,-0.404 0.574,-0.441 0.596,-0.468C0.59,-0.507 0.599,-0.541 0.622,-0.57ZM0.893,-0.79C0.907,-0.774 0.917,-0.754 0.923,-0.731C0.918,-0.716 0.914,-0.706 0.911,-0.701C0.908,-0.696 0.901,-0.688 0.89,-0.676C0.883,-0.675 0.858,-0.673 0.816,-0.67C0.812,-0.666 0.809,-0.662 0.806,-0.658C0.803,-0.654 0.8,-0.649 0.798,-0.643C0.795,-0.637 0.794,-0.632 0.793,-0.63C0.792,-0.627 0.79,-0.621 0.788,-0.613C0.786,-0.605 0.785,-0.6 0.784,-0.599C0.727,-0.407 0.681,-0.266 0.644,-0.176C0.623,-0.123 0.61,-0.091 0.604,-0.078C0.569,-0.005 0.517,0.027 0.446,0.016C0.423,-0.001 0.405,-0.03 0.39,-0.069C0.385,-0.081 0.375,-0.096 0.359,-0.113C0.343,-0.13 0.333,-0.145 0.329,-0.156C0.327,-0.161 0.328,-0.168 0.332,-0.179C0.336,-0.19 0.336,-0.197 0.331,-0.202C0.329,-0.206 0.327,-0.209 0.324,-0.211C0.321,-0.213 0.316,-0.215 0.311,-0.217C0.306,-0.219 0.302,-0.221 0.299,-0.222C0.298,-0.223 0.296,-0.23 0.291,-0.242C0.286,-0.254 0.282,-0.264 0.279,-0.271C0.278,-0.274 0.277,-0.279 0.278,-0.286C0.278,-0.293 0.277,-0.299 0.276,-0.304C0.274,-0.309 0.27,-0.313 0.265,-0.316L0.249,-0.316C0.245,-0.324 0.242,-0.33 0.241,-0.334L0.241,-0.35C0.243,-0.351 0.247,-0.353 0.253,-0.355C0.258,-0.357 0.262,-0.358 0.263,-0.359C0.259,-0.366 0.252,-0.38 0.242,-0.403C0.231,-0.426 0.222,-0.443 0.213,-0.454C0.199,-0.472 0.189,-0.503 0.182,-0.547C0.179,-0.571 0.166,-0.599 0.144,-0.632C0.132,-0.64 0.114,-0.644 0.089,-0.645C0.064,-0.645 0.048,-0.646 0.04,-0.649C0.024,-0.66 0.011,-0.676 0,-0.699C0.005,-0.706 0.013,-0.727 0.024,-0.762C0.029,-0.779 0.039,-0.791 0.052,-0.8C0.065,-0.808 0.079,-0.81 0.095,-0.805C0.114,-0.8 0.141,-0.797 0.177,-0.796C0.212,-0.795 0.238,-0.794 0.253,-0.791C0.254,-0.792 0.259,-0.794 0.267,-0.797C0.274,-0.8 0.279,-0.801 0.282,-0.802C0.284,-0.803 0.289,-0.804 0.296,-0.807C0.303,-0.81 0.308,-0.811 0.311,-0.812C0.314,-0.813 0.319,-0.814 0.326,-0.816C0.332,-0.817 0.337,-0.818 0.342,-0.819C0.346,-0.819 0.351,-0.819 0.357,-0.82C0.363,-0.821 0.369,-0.821 0.375,-0.821C0.38,-0.821 0.386,-0.821 0.392,-0.82C0.398,-0.816 0.407,-0.81 0.419,-0.803C0.43,-0.796 0.438,-0.791 0.441,-0.789C0.449,-0.781 0.455,-0.769 0.459,-0.753C0.462,-0.737 0.465,-0.727 0.467,-0.724C0.474,-0.729 0.481,-0.74 0.487,-0.755C0.492,-0.77 0.499,-0.78 0.506,-0.785C0.529,-0.802 0.557,-0.812 0.59,-0.813C0.622,-0.814 0.651,-0.811 0.676,-0.805C0.717,-0.8 0.755,-0.8 0.788,-0.806C0.835,-0.814 0.87,-0.809 0.893,-0.79Z" style="fill-rule:nonzero;"/>
                    </g>
                </g>
                <g transform="matrix(1,0,0,1,718.07,2.65195)">
                    <g transform="matrix(112.641,0,0,112.641,53.1651,134.178)">
                        <path d="M0.145,-0.619C0.147,-0.622 0.148,-0.626 0.149,-0.63C0.149,-0.633 0.149,-0.636 0.148,-0.638C0.147,-0.639 0.146,-0.642 0.144,-0.646C0.141,-0.65 0.14,-0.652 0.14,-0.653C0.137,-0.658 0.13,-0.666 0.118,-0.678C0.106,-0.689 0.099,-0.701 0.097,-0.712C0.102,-0.73 0.112,-0.746 0.126,-0.761C0.139,-0.775 0.152,-0.786 0.165,-0.794C0.178,-0.801 0.194,-0.81 0.215,-0.82C0.26,-0.814 0.288,-0.807 0.299,-0.8C0.31,-0.793 0.326,-0.771 0.345,-0.736C0.345,-0.719 0.342,-0.703 0.335,-0.688C0.328,-0.673 0.32,-0.661 0.311,-0.652C0.301,-0.643 0.291,-0.635 0.281,-0.629C0.27,-0.622 0.262,-0.618 0.256,-0.616C0.249,-0.613 0.246,-0.612 0.245,-0.612L0.196,-0.616C0.164,-0.619 0.147,-0.62 0.145,-0.619ZM0.347,-0.153C0.354,-0.142 0.367,-0.135 0.385,-0.132C0.402,-0.129 0.415,-0.123 0.424,-0.114C0.436,-0.081 0.435,-0.052 0.422,-0.025C0.391,0 0.359,0.008 0.324,-0.001C0.273,-0.014 0.222,-0.013 0.169,-0C0.108,0.015 0.061,-0.003 0.03,-0.054C0.033,-0.063 0.034,-0.067 0.035,-0.068L0.075,-0.124C0.08,-0.129 0.085,-0.132 0.09,-0.133C0.094,-0.134 0.099,-0.135 0.105,-0.134C0.11,-0.133 0.114,-0.133 0.115,-0.133C0.136,-0.151 0.145,-0.167 0.142,-0.181C0.139,-0.202 0.14,-0.232 0.143,-0.27C0.146,-0.307 0.148,-0.332 0.148,-0.343C0.148,-0.386 0.143,-0.422 0.132,-0.45C0.081,-0.437 0.039,-0.451 0.004,-0.49C0.002,-0.508 0.005,-0.524 0.014,-0.539C0.022,-0.553 0.034,-0.568 0.051,-0.584C0.081,-0.613 0.112,-0.624 0.143,-0.617L0.145,-0.619C0.146,-0.618 0.163,-0.615 0.195,-0.61C0.226,-0.604 0.243,-0.602 0.246,-0.602C0.269,-0.599 0.293,-0.591 0.318,-0.578C0.342,-0.565 0.359,-0.55 0.366,-0.535C0.36,-0.519 0.355,-0.502 0.351,-0.484C0.347,-0.466 0.344,-0.45 0.342,-0.437C0.34,-0.423 0.339,-0.405 0.339,-0.383C0.339,-0.36 0.339,-0.344 0.34,-0.333C0.34,-0.322 0.341,-0.304 0.342,-0.278C0.343,-0.252 0.344,-0.235 0.345,-0.227C0.345,-0.222 0.346,-0.213 0.347,-0.202C0.348,-0.19 0.349,-0.182 0.349,-0.177C0.349,-0.171 0.348,-0.164 0.347,-0.153Z" style="fill-rule:nonzero;"/>
                    </g>
                </g>
                <g transform="matrix(1,0,0,1,718.07,2.65195)">
                    <g transform="matrix(112.641,0,0,112.641,53.1651,134.178)">
                        <path d="M0.145,-0.619C0.147,-0.622 0.148,-0.626 0.149,-0.63C0.149,-0.633 0.149,-0.636 0.148,-0.638C0.147,-0.639 0.146,-0.642 0.144,-0.646C0.141,-0.65 0.14,-0.652 0.14,-0.653C0.137,-0.658 0.13,-0.666 0.118,-0.678C0.106,-0.689 0.099,-0.701 0.097,-0.712C0.102,-0.73 0.112,-0.746 0.126,-0.761C0.139,-0.775 0.152,-0.786 0.165,-0.794C0.178,-0.801 0.194,-0.81 0.215,-0.82C0.26,-0.814 0.288,-0.807 0.299,-0.8C0.31,-0.793 0.326,-0.771 0.345,-0.736C0.345,-0.719 0.342,-0.703 0.335,-0.688C0.328,-0.673 0.32,-0.661 0.311,-0.652C0.301,-0.643 0.291,-0.635 0.281,-0.629C0.27,-0.622 0.262,-0.618 0.256,-0.616C0.249,-0.613 0.246,-0.612 0.245,-0.612L0.196,-0.616C0.164,-0.619 0.147,-0.62 0.145,-0.619ZM0.347,-0.153C0.354,-0.142 0.367,-0.135 0.385,-0.132C0.402,-0.129 0.415,-0.123 0.424,-0.114C0.436,-0.081 0.435,-0.052 0.422,-0.025C0.391,0 0.359,0.008 0.324,-0.001C0.273,-0.014 0.222,-0.013 0.169,-0C0.108,0.015 0.061,-0.003 0.03,-0.054C0.033,-0.063 0.034,-0.067 0.035,-0.068L0.075,-0.124C0.08,-0.129 0.085,-0.132 0.09,-0.133C0.094,-0.134 0.099,-0.135 0.105,-0.134C0.11,-0.133 0.114,-0.133 0.115,-0.133C0.136,-0.151 0.145,-0.167 0.142,-0.181C0.139,-0.202 0.14,-0.232 0.143,-0.27C0.146,-0.307 0.148,-0.332 0.148,-0.343C0.148,-0.386 0.143,-0.422 0.132,-0.45C0.081,-0.437 0.039,-0.451 0.004,-0.49C0.002,-0.508 0.005,-0.524 0.014,-0.539C0.022,-0.553 0.034,-0.568 0.051,-0.584C0.081,-0.613 0.112,-0.624 0.143,-0.617L0.145,-0.619C0.146,-0.618 0.163,-0.615 0.195,-0.61C0.226,-0.604 0.243,-0.602 0.246,-0.602C0.269,-0.599 0.293,-0.591 0.318,-0.578C0.342,-0.565 0.359,-0.55 0.366,-0.535C0.36,-0.519 0.355,-0.502 0.351,-0.484C0.347,-0.466 0.344,-0.45 0.342,-0.437C0.34,-0.423 0.339,-0.405 0.339,-0.383C0.339,-0.36 0.339,-0.344 0.34,-0.333C0.34,-0.322 0.341,-0.304 0.342,-0.278C0.343,-0.252 0.344,-0.235 0.345,-0.227C0.345,-0.222 0.346,-0.213 0.347,-0.202C0.348,-0.19 0.349,-0.182 0.349,-0.177C0.349,-0.171 0.348,-0.164 0.347,-0.153Z" style="fill-rule:nonzero;"/>
                    </g>
                </g>
                <g transform="matrix(1,0,0,1,882.011,2.65195)">
                    <g transform="matrix(112.641,0,0,112.641,53.1651,134.178)">
                        <path d="M0.563,-0.302C0.591,-0.297 0.613,-0.286 0.629,-0.27C0.644,-0.254 0.65,-0.231 0.646,-0.202C0.638,-0.142 0.612,-0.094 0.567,-0.057C0.508,-0.012 0.437,0.011 0.352,0.012C0.267,0.012 0.195,-0.011 0.136,-0.058C0.124,-0.069 0.106,-0.084 0.081,-0.105C0.078,-0.112 0.074,-0.124 0.069,-0.139C0.064,-0.154 0.06,-0.167 0.057,-0.177C0.053,-0.186 0.047,-0.197 0.04,-0.209C0.033,-0.221 0.024,-0.231 0.015,-0.24C0.019,-0.248 0.024,-0.26 0.031,-0.277L0.031,-0.283C0.009,-0.305 0.002,-0.327 0.011,-0.349L0.011,-0.348C0.011,-0.349 0.012,-0.356 0.015,-0.367C0.018,-0.378 0.019,-0.384 0.019,-0.385C0.018,-0.387 0.017,-0.389 0.016,-0.392C0.014,-0.395 0.012,-0.397 0.011,-0.4C0.009,-0.402 0.008,-0.404 0.007,-0.406C0.008,-0.417 0.014,-0.421 0.027,-0.42C0.035,-0.446 0.044,-0.468 0.055,-0.486C0.055,-0.488 0.055,-0.491 0.056,-0.496C0.057,-0.5 0.057,-0.503 0.057,-0.506C0.066,-0.516 0.078,-0.53 0.095,-0.548C0.111,-0.566 0.122,-0.579 0.129,-0.586L0.13,-0.588C0.152,-0.606 0.177,-0.62 0.204,-0.631C0.231,-0.642 0.265,-0.652 0.304,-0.662C0.315,-0.665 0.327,-0.664 0.339,-0.66L0.34,-0.661C0.346,-0.662 0.356,-0.663 0.371,-0.666C0.385,-0.668 0.396,-0.67 0.404,-0.671C0.418,-0.668 0.438,-0.662 0.465,-0.654C0.492,-0.646 0.507,-0.641 0.511,-0.64C0.522,-0.637 0.532,-0.633 0.541,-0.629C0.55,-0.625 0.558,-0.62 0.567,-0.613C0.576,-0.606 0.583,-0.6 0.588,-0.595C0.593,-0.59 0.601,-0.581 0.612,-0.57C0.622,-0.56 0.629,-0.549 0.634,-0.537C0.638,-0.525 0.641,-0.509 0.644,-0.49C0.646,-0.471 0.648,-0.458 0.65,-0.451L0.65,-0.45C0.657,-0.431 0.659,-0.412 0.658,-0.391C0.656,-0.37 0.648,-0.352 0.633,-0.336C0.629,-0.332 0.624,-0.33 0.618,-0.33C0.611,-0.33 0.6,-0.33 0.585,-0.329C0.569,-0.328 0.555,-0.328 0.544,-0.327C0.532,-0.326 0.524,-0.326 0.521,-0.326C0.51,-0.326 0.493,-0.326 0.47,-0.326C0.446,-0.325 0.427,-0.325 0.414,-0.325C0.4,-0.325 0.383,-0.325 0.364,-0.324C0.345,-0.323 0.327,-0.321 0.31,-0.319C0.285,-0.316 0.259,-0.316 0.232,-0.318C0.233,-0.313 0.235,-0.308 0.237,-0.304C0.24,-0.297 0.242,-0.29 0.245,-0.283C0.247,-0.276 0.249,-0.268 0.251,-0.261C0.253,-0.254 0.255,-0.247 0.257,-0.241C0.258,-0.234 0.26,-0.227 0.262,-0.22C0.264,-0.212 0.266,-0.205 0.267,-0.2C0.272,-0.195 0.279,-0.189 0.286,-0.182C0.293,-0.174 0.3,-0.167 0.307,-0.16C0.313,-0.153 0.319,-0.148 0.325,-0.144C0.362,-0.139 0.401,-0.143 0.441,-0.154C0.47,-0.173 0.489,-0.199 0.498,-0.233C0.503,-0.253 0.508,-0.267 0.513,-0.275C0.526,-0.297 0.542,-0.306 0.563,-0.302ZM0.241,-0.441C0.26,-0.44 0.28,-0.441 0.303,-0.442C0.325,-0.443 0.343,-0.444 0.357,-0.446C0.371,-0.447 0.392,-0.449 0.421,-0.452C0.449,-0.455 0.468,-0.457 0.479,-0.458C0.477,-0.465 0.475,-0.469 0.474,-0.471C0.473,-0.472 0.472,-0.473 0.469,-0.476C0.468,-0.477 0.466,-0.478 0.465,-0.479C0.462,-0.48 0.449,-0.487 0.428,-0.498C0.402,-0.505 0.373,-0.505 0.34,-0.5C0.306,-0.489 0.274,-0.475 0.244,-0.458C0.243,-0.455 0.242,-0.449 0.241,-0.441Z" style="fill-rule:nonzero;"/>
                    </g>
                </g>
                <g transform="matrix(1,0,0,1,992.744,3.58649)">
                    <g transform="matrix(112.641,0,0,112.641,53.1651,134.178)">
                        <path d="M0.095,0.198C0.088,0.193 0.079,0.186 0.066,0.177C0.053,0.167 0.045,0.161 0.041,0.158C0.034,0.145 0.03,0.132 0.029,0.119C0.027,0.106 0.028,0.093 0.033,0.081C0.037,0.069 0.041,0.058 0.046,0.05C0.051,0.041 0.057,0.03 0.066,0.018C0.062,0.003 0.051,-0.015 0.032,-0.037C0.013,-0.058 0.003,-0.077 0,-0.092C0.005,-0.117 0.009,-0.133 0.012,-0.14C0.015,-0.147 0.022,-0.158 0.035,-0.175C0.041,-0.176 0.051,-0.179 0.066,-0.183C0.081,-0.187 0.092,-0.19 0.101,-0.192C0.17,-0.207 0.219,-0.181 0.248,-0.115C0.25,-0.111 0.252,-0.104 0.255,-0.095C0.263,-0.072 0.268,-0.05 0.269,-0.028C0.27,-0.006 0.268,0.013 0.265,0.029C0.262,0.045 0.255,0.063 0.244,0.082C0.233,0.101 0.223,0.116 0.216,0.127C0.208,0.138 0.196,0.153 0.181,0.172C0.16,0.2 0.131,0.209 0.095,0.198Z" style="fill-rule:nonzero;"/>
                    </g>
                </g>
            </g>
        </g>
    </g>
</svg>
